<?xml version="1.0" encoding="utf-8"?>
<!-- Generator: Adobe Illustrator 27.0.0, SVG Export Plug-In . SVG Version: 6.00 Build 0)  -->
<svg version="1.1" id="레이어_1" xmlns="http://www.w3.org/2000/svg" xmlns:xlink="http://www.w3.org/1999/xlink" x="0px"
	 y="0px" viewBox="0 0 283.5 283.5" style="enable-background:new 0 0 283.5 283.5;" xml:space="preserve">
<style type="text/css">
	.st0{fill:none;}
	.st1{fill:#664B90;}
	.st2{fill:#9F91C4;}
	.st3{fill:url(#SVGID_1_);}
</style>
<rect y="0" class="st0" width="283.5" height="283.5"/>
<g>
	<g>
		<path class="st0" d="M60.5,141.2c-11.5,0-20.8,9.3-20.8,20.8s9.3,20.8,20.8,20.8s20.8-9.3,20.8-20.8S72,141.2,60.5,141.2z"/>
		<path class="st1" d="M202.2,162.1c0-11.5,9.3-20.8,20.8-20.8c10.9,0,19.8-8.9,19.8-19.8s-8.9-19.8-19.8-19.8
			c-7.3,0-14.3,1.3-20.8,3.7V80.8c0-10.9-8.9-19.8-19.8-19.8c-10.9,0-19.8,8.9-19.8,19.8v24.5C185.7,113.8,202.2,136.1,202.2,162.1z
			"/>
		<path class="st1" d="M263.7,142.3c-10.9,0-19.8,8.9-19.8,19.8c0,11.5-9.3,20.8-20.8,20.8c-11.5,0-20.8-9.3-20.8-20.8v40.6
			c0,5.3-2.1,10.2-5.6,13.7c8,3.9,16.9,6.1,26.4,6.1c33.3,0,60.5-27.1,60.5-60.5C283.5,151.1,274.6,142.3,263.7,142.3z"/>
		<path class="st2" d="M101.1,61c-10.9,0-19.8,8.9-19.8,19.8v24.5c-6.5-2.4-13.5-3.7-20.8-3.7C27.1,101.6,0,128.7,0,162.1
			c0,33.3,27.1,60.5,60.5,60.5s60.5-27.1,60.5-60.5v-56.8V80.8C120.9,69.8,112.1,61,101.1,61z M60.5,182.9
			c-11.5,0-20.8-9.3-20.8-20.8s9.3-20.8,20.8-20.8s20.8,9.3,20.8,20.8S72,182.9,60.5,182.9z"/>
	</g>
	<linearGradient id="SVGID_1_" gradientUnits="userSpaceOnUse" x1="120.9243" y1="162.0699" x2="202.2033" y2="162.0699">
		<stop  offset="0" style="stop-color:#664B90"/>
		<stop  offset="5.140120e-02" style="stop-color:#6F5597"/>
		<stop  offset="0.1798" style="stop-color:#7F69A6"/>
		<stop  offset="0.3216" style="stop-color:#8D7BB4"/>
		<stop  offset="0.482" style="stop-color:#9787BD"/>
		<stop  offset="0.6765" style="stop-color:#9D8FC3"/>
		<stop  offset="1" style="stop-color:#9F91C4"/>
	</linearGradient>
	<path class="st3" d="M162.6,105.3c-6.5-2.4-13.5-3.7-20.8-3.7c-7.3,0-14.3,1.3-20.8,3.7v56.8c0-11.5,9.3-20.8,20.8-20.8
		s20.8,9.3,20.8,20.8v40.6c0,10.9,8.9,19.8,19.8,19.8c5.6,0,10.7-2.3,14.3-6.1c3.4-3.6,5.6-8.4,5.6-13.7v-40.6
		C202.2,136.1,185.7,113.8,162.6,105.3z"/>
</g>
</svg>
