<?xml version="1.0" encoding="utf-8"?>
<!-- Generator: Adobe Illustrator 27.0.0, SVG Export Plug-In . SVG Version: 6.00 Build 0)  -->
<svg version="1.1" id="레이어_1" xmlns="http://www.w3.org/2000/svg" xmlns:xlink="http://www.w3.org/1999/xlink" x="0px"
	 y="0px" viewBox="0 0 283.5 283.5" style="enable-background:new 0 0 283.5 283.5;" xml:space="preserve">
<style type="text/css">
	.st0{fill:none;}
	.st1{fill:#5A509F;}
	.st2{fill:#B1B1D8;}
	.st3{fill:url(#SVGID_1_);}
</style>
<rect class="st0" width="283.5" height="283.5"/>
<g>
	<g>
		<path class="st0" d="M62.1,141.2c-11.3,0-20.4,9.2-20.4,20.4s9.2,20.4,20.4,20.4s20.4-9.2,20.4-20.4S73.3,141.2,62.1,141.2z"/>
		<path class="st1" d="M201,161.6c0-11.3,9.2-20.4,20.4-20.4c10.7,0,19.4-8.7,19.4-19.4s-8.7-19.4-19.4-19.4c-7.2,0-14,1.3-20.4,3.6
			V82c0-10.7-8.7-19.4-19.4-19.4c-10.7,0-19.4,8.7-19.4,19.4v24C184.8,114.4,201,136.1,201,161.6z"/>
		<path class="st1" d="M261.2,142.2c-10.7,0-19.4,8.7-19.4,19.4c0,11.3-9.2,20.4-20.4,20.4c-11.3,0-20.4-9.2-20.4-20.4v39.8
			c0,5.2-2.1,10-5.4,13.5c7.8,3.8,16.6,5.9,25.9,5.9c32.7,0,59.2-26.6,59.2-59.2C280.6,150.9,271.9,142.2,261.2,142.2z"/>
		<path class="st2" d="M101.9,62.6c-10.7,0-19.4,8.7-19.4,19.4v24c-6.4-2.3-13.2-3.6-20.4-3.6c-32.7,0-59.2,26.6-59.2,59.2
			c0,32.7,26.6,59.2,59.2,59.2s59.2-26.6,59.2-59.2V106V82C121.3,71.3,112.6,62.6,101.9,62.6z M62.1,182.1
			c-11.3,0-20.4-9.2-20.4-20.4s9.2-20.4,20.4-20.4s20.4,9.2,20.4,20.4S73.3,182.1,62.1,182.1z"/>
	</g>
	<linearGradient id="SVGID_1_" gradientUnits="userSpaceOnUse" x1="121.3231" y1="161.6458" x2="200.9765" y2="161.6458">
		<stop  offset="0" style="stop-color:#5A509F"/>
		<stop  offset="0.1086" style="stop-color:#675FA8"/>
		<stop  offset="0.262" style="stop-color:#766FB2"/>
		<stop  offset="0.4365" style="stop-color:#807BB9"/>
		<stop  offset="0.6481" style="stop-color:#8682BD"/>
		<stop  offset="1" style="stop-color:#8885BF"/>
	</linearGradient>
	<path class="st3" d="M162.1,106c-6.4-2.3-13.2-3.6-20.4-3.6c-7.2,0-14,1.3-20.4,3.6v55.6c0-11.3,9.2-20.4,20.4-20.4
		s20.4,9.2,20.4,20.4v39.8c0,10.7,8.7,19.4,19.4,19.4c5.5,0,10.4-2.3,14-5.9c3.4-3.5,5.4-8.2,5.4-13.5v-39.8
		C201,136.1,184.8,114.4,162.1,106z"/>
</g>
</svg>
